.
 
http://www.scenetime.com    -   SceneTime [ We been having it ] !!!


How come you press harder on a remote control when you know the battery is dead? so you better seed to get speed ;)

        Seed back for speed


...................................NFO:.................................................[pre][img]http://i824.photobucket.com/albums/zz161/akosipalos/EK.jpg[/img]   
            
*******************************************************************************
               Essential.Killing.2010.480p.BRRip.XviD.AC3-PRESTiGE
*******************************************************************************

-------------------------------------------------------------------------------
                              General Information
-------------------------------------------------------------------------------

TiTLE............: Essential.Killing.2010.480p.BRRip.XviD.AC3-PRESTiGE

iMDB.............: http://www.imdb.com/title/tt1561768/

GENRE............: Thriller | War 

LANGUAGE.........: English

FORMAT...........: AVi

SOURCE...........: 720p.BluRay.X264-7SinS MANY THANKS!!!

FiLE SiZE........: 1.70GB

SAMPLE iNCLUDED..: YES

SUBS.............: English Sub (if needed)

DURATiON.........: 1h 24mn

ENCODED by.......: [color=maroon]akosipalos[/color]



ViDEO iNFO:

ID                               : 0
Format                           : MPEG-4 Visual
Format profile                   : Advanced Simple@L5
Format settings, BVOP            : 2
Format settings, QPel            : No
Format settings, GMC             : No warppoints
Format settings, Matrix          : Default (H.263)
Codec ID                         : XVID
Codec ID/Hint                    : XviD
Duration                         : 1h 24mn
Bit rate                         : 2 426 Kbps
Width                            : 720 pixels
Height                           : 384 pixels
Display aspect ratio             : 1.875
Frame rate                       : 24.000 fps
Color space                      : YUV
Chroma subsampling               : 4:2:0
Bit depth                        : 8 bits
Scan type                        : Progressive
Compression mode                 : Lossy
Bits/(Pixel*Frame)               : 0.366
Stream size                      : 1.43 GiB (84%)
Writing library                  : XviD 1.2.1 (UTC 2008-12-04)


AUDiO iNFO:

ID                               : 1
Format                           : AC-3
Format/Info                      : Audio Coding 3
Mode extension                   : CM (complete main)
Codec ID                         : 2000
Duration                         : 1h 24mn
Bit rate mode                    : Constant
Bit rate                         : 448 Kbps
Channel(s)                       : 6 channels
Channel positions                : Front: L C R, Side: L R, LFE
Sampling rate                    : 48.0 KHz
Bit depth                        : 16 bits
Compression mode                 : Lossy
Stream size                      : 271 MiB (16%)
Alignment                        : Aligned on interleaves
Interleave, duration             : 64 ms (1.54 video frames)
Interleave, preload duration     : 192 ms
Title                            : T2_Audio - 5.1 channels



-------------------------------------------------------------------------------
                                 PLOT:
-------------------------------------------------------------------------------


A thriller centered on a political prisoner who attempts his escape.  


-------------------------------------------------------------------------------
                                 CAST:
-------------------------------------------------------------------------------


Vincent Gallo

Emmanuelle Seigner

David L. Price


-------------------------------------------------------------------------------
                               SCREENS:
-------------------------------------------------------------------------------


[img]http://i824.photobucket.com/albums/zz161/akosipalos/ek1.png[/img]

[img]http://i824.photobucket.com/albums/zz161/akosipalos/ek2.png[/img]

[img]http://i824.photobucket.com/albums/zz161/akosipalos/ek3.png[/img]

[img]http://i824.photobucket.com/albums/zz161/akosipalos/ek4.png[/img]


-------------------------------------------------------------------------------
                             Release Notes
-------------------------------------------------------------------------------


PRESTiGE - IS LOOKING FOR?: CAMMER'S, AUDIO SUPPLIERS, SYNCER'S, RETAIL
SUPPLIER'S, SILVER'S, SCREENER'S, LINE CAPPER'S

ENCODER'S - ANYTHING AT ALL EMAIL US AT..... prestige@hushmail.me

** ** ** ** ** ** ** ** **

PRESTiGE is the level of respect at which one is regarded by others....RIzE Above Or Sink Below...


-------------------------------------------------------------------------------
                                 GREETZ:
-------------------------------------------------------------------------------


Twisted ,bigguy, Selina, 6of1, CTFX, HiTM4N, bedsy, mtyy, whitestag13, paranoid53, PA4U2C, phules, tac, BMB, Flawl3ss, smelise, fifer, akosipalos, DiLLoN, IMAGINE,"the squad" , floridajoe and To All Encoders Past And Present......


-------------------------------------------------------------------------------
Generated with Cool NFO Creator - http://fly.to/coolbeans
-------------------------------------------------------------------------------
[/pre]